<?xml version="1.0" encoding="UTF-8" standalone="no"?>
<svg
   xmlns:dc="http://purl.org/dc/elements/1.1/"
   xmlns:cc="http://creativecommons.org/ns#"
   xmlns:rdf="http://www.w3.org/1999/02/22-rdf-syntax-ns#"
   xmlns:svg="http://www.w3.org/2000/svg"
   xmlns="http://www.w3.org/2000/svg"
   version="1.1"
   id="svg2"
   xml:space="preserve"
   width="1051.9532"
   height="237.88533"
   viewBox="0 0 1051.9532 237.88533"><metadata
     id="metadata8"><rdf:RDF><cc:Work
         rdf:about=""><dc:format>image/svg+xml</dc:format><dc:type
           rdf:resource="http://purl.org/dc/dcmitype/StillImage" /><dc:title></dc:title></cc:Work></rdf:RDF></metadata><defs
     id="defs6" /><g
     id="g10"
     transform="matrix(1.3333333,0,0,1.3333333,-9.9999995,-9.9999995)"><g
       id="g12"><path
         d="m 72.805,91.227 c -3.379,1.687 -8.075,3.253 -14.09,4.699 l -8.309,1.804 c -4.336,1.208 -7.468,2.774 -9.394,4.696 -1.688,2.656 -2.528,5.301 -2.528,7.949 0,3.613 1.082,6.5 3.25,8.672 2.168,1.93 5.293,2.887 9.391,2.887 6.742,0 12.043,-1.922 15.898,-5.782 3.848,-3.847 5.782,-9.148 5.782,-15.894 z m 5.777,44.437 c -5.055,2.652 -10.422,4.27 -16.074,4.879 -5.664,0.594 -10.656,0.898 -14.992,0.898 -8.672,0 -16.258,-2.347 -22.762,-7.043 C 18.25,129.703 15,121.934 15,111.098 15,100.98 17.949,93.754 23.852,89.422 29.75,85.086 37.273,82.195 46.43,80.75 c 1.203,0 2.648,-0.18 4.336,-0.543 1.683,-0.359 3.613,-0.656 5.781,-0.902 10.594,-1.446 15.894,-4.571 15.894,-9.391 0,-3.613 -1.867,-5.961 -5.601,-7.043 -3.735,-1.086 -7.168,-1.629 -10.293,-1.629 -3.379,0 -6.387,0.485 -9.031,1.446 -2.653,0.964 -4.578,2.773 -5.782,5.417 H 17.531 c 0.957,-7.46 4.332,-13.601 10.114,-18.421 6.503,-5.539 15.769,-8.309 27.816,-8.309 13.488,0 23.601,2.289 30.348,6.863 6.98,4.821 10.476,11.559 10.476,20.231 v 32.875 c 0,9.633 -1.75,17.16 -5.238,22.578 -3.492,5.418 -7.649,9.336 -12.465,11.742"
         style="fill:#fcfcfc;fill-opacity:1;fill-rule:nonzero;stroke:none"
         id="path14" /><path
         d="m 126.922,90.867 c 0,9.637 1.805,16.977 5.418,22.035 3.609,5.059 8.789,7.586 15.531,7.586 6.504,0 11.563,-2.527 15.176,-7.586 3.367,-5.058 5.058,-12.398 5.058,-22.035 0,-8.672 -1.808,-15.535 -5.421,-20.594 -3.856,-4.812 -9.032,-7.222 -15.536,-7.222 -6.261,0 -11.199,2.527 -14.808,7.586 -3.613,4.82 -5.418,11.558 -5.418,20.23 M 168.105,15 h 12.282 c 3.371,0 6.258,1.266 8.668,3.793 2.406,2.531 3.613,5.363 3.613,8.492 V 97.73 c 0,17.106 -4.938,28.665 -14.809,34.68 -9.879,6.024 -20.593,9.031 -32.156,9.031 -6.262,0 -12.402,-1.023 -18.422,-3.07 -6.023,-2.043 -10.84,-5.355 -14.453,-9.933 -6.984,-8.907 -10.473,-21.075 -10.473,-36.489 0,-15.172 3.489,-27.332 10.473,-36.484 7.227,-9.395 16.496,-14.09 27.82,-14.09 6.016,0 11.317,1.207 15.895,3.609 4.816,2.891 8.672,6.629 11.562,11.204 z"
         style="fill:#fcfcfc;fill-opacity:1;fill-rule:nonzero;stroke:none"
         id="path16" /><path
         d="M 260.875,139.637 H 235.227 L 201.629,43.539 h 26.734 l 19.145,67.559 16.98,-58.887 c 1.922,-5.781 5.782,-8.672 11.559,-8.672 h 18.785 z"
         style="fill:#fcfcfc;fill-opacity:1;fill-rule:nonzero;stroke:none"
         id="path18" /><path
         d="m 327.273,81.836 h 36.852 c -0.488,-6.504 -2.168,-11.316 -5.059,-14.453 -3.132,-3.367 -7.586,-5.055 -13.367,-5.055 -5.301,0 -9.637,1.688 -13.004,5.055 -3.375,3.379 -5.183,8.191 -5.422,14.453 m 43.352,28.176 h 18.063 c -2.653,10.117 -7.708,17.828 -15.172,23.121 -7.469,5.543 -16.86,8.308 -28.18,8.308 -13.727,0 -24.445,-4.453 -32.152,-13.367 -7.711,-8.668 -11.559,-21.07 -11.559,-37.207 0,-15.41 3.73,-27.457 11.199,-36.125 7.707,-8.91 18.426,-13.367 32.153,-13.367 14.449,0 25.648,4.332 33.597,13.004 7.707,8.914 11.559,21.316 11.559,37.211 v 3.972 c 0,1.208 -0.121,2.051 -0.36,2.528 h -62.5 c 0.239,7.469 2.047,13.008 5.422,16.621 3.125,3.855 7.821,5.777 14.09,5.777 4.09,0 7.586,-0.84 10.473,-2.527 0.722,-0.234 1.383,-0.66 1.988,-1.266 0.598,-0.597 1.266,-1.261 1.988,-1.984 0.235,-0.723 1.141,-1.684 2.711,-2.891 1.563,-1.203 3.793,-1.808 6.68,-1.808"
         style="fill:#fcfcfc;fill-opacity:1;fill-rule:nonzero;stroke:none"
         id="path20" /><path
         d="M 398.734,139.637 V 93.031 c 0,-9.39 1.383,-17.277 4.153,-23.66 2.769,-6.379 6.558,-11.496 11.379,-15.355 4.574,-3.61 9.937,-6.258 16.078,-7.946 6.14,-1.683 12.465,-2.531 18.965,-2.531 h 3.613 v 25.652 h -8.309 c -6.988,0 -12.164,1.688 -15.535,5.055 -3.375,3.379 -5.055,8.672 -5.055,15.899 v 49.492 z"
         style="fill:#fcfcfc;fill-opacity:1;fill-rule:nonzero;stroke:none"
         id="path22" /><path
         d="m 588.973,67.383 c -5.059,5.543 -7.352,13.789 -6.864,24.75 0.481,10.961 2.528,18.601 6.141,22.937 1.445,1.93 3.977,3.555 7.586,4.875 3.613,1.328 7.281,1.45 11.019,0.364 3.731,-1.086 7.043,-3.793 9.934,-8.129 2.891,-4.336 4.453,-11.317 4.699,-20.95 0,-8.675 -1.39,-15.175 -4.156,-19.511 -2.77,-4.336 -5.961,-7.102 -9.574,-8.309 -3.613,-1.203 -7.227,-1.262 -10.84,-0.18 -3.609,1.082 -6.262,2.473 -7.945,4.153 m -17.344,63.582 c -5.055,-4.336 -8.668,-10.172 -10.836,-17.52 -2.168,-7.343 -3.25,-14.992 -3.25,-22.941 0,-6.5 0.902,-13.004 2.707,-19.508 1.809,-6.5 4.637,-11.922 8.492,-16.254 6.258,-7.226 14.328,-11.5 24.203,-12.828 9.875,-1.32 18.785,-0.539 26.735,2.352 9.148,3.609 15.894,9.875 20.23,18.785 4.094,7.945 6.141,17.222 6.141,27.816 0,7.707 -0.848,14.332 -2.528,19.867 -1.687,5.543 -3.855,10.243 -6.5,14.09 -5.785,7.949 -13.132,12.887 -22.039,14.813 -7.949,2.168 -15.957,2.347 -24.027,0.543 -8.07,-1.809 -14.512,-4.879 -19.328,-9.215"
         style="fill:#fcfcfc;fill-opacity:1;fill-rule:nonzero;stroke:none"
         id="path24" /><path
         d="m 652.484,107.844 h 24.563 c 0.238,4.82 2.043,8.433 5.418,10.84 3.617,2.41 8.43,3.613 14.453,3.613 4.336,0 8.066,-0.844 11.199,-2.531 2.891,-1.68 4.336,-3.973 4.336,-6.86 0,-4.336 -5.058,-7.59 -15.176,-9.758 -4.332,-0.722 -7.586,-1.445 -9.754,-2.168 -12.765,-3.128 -21.312,-6.863 -25.648,-11.195 -4.82,-4.336 -7.227,-10.117 -7.227,-17.344 0,-9.148 3.489,-16.734 10.481,-22.757 7.223,-5.539 16.617,-8.309 28.176,-8.309 12.519,0 22.515,2.77 29.984,8.309 6.984,6.023 10.715,13.851 11.199,23.48 h -15.531 c -4.578,0 -8.074,-2.043 -10.48,-6.141 -0.965,-0.961 -1.93,-1.925 -2.891,-2.89 -2.887,-2.168 -6.863,-3.25 -11.918,-3.25 -4.82,0 -8.434,0.719 -10.84,2.168 -2.168,1.445 -3.25,3.613 -3.25,6.504 0,3.851 6.258,7.105 18.785,9.75 1.446,0.484 2.707,0.847 3.793,1.086 1.086,0.242 2.106,0.359 3.071,0.359 12.281,3.133 20.828,6.746 25.648,10.84 4.574,4.336 6.867,10.113 6.867,17.34 0,10.601 -3.859,18.785 -11.562,24.566 -7.223,5.301 -18.063,7.945 -32.512,7.945 -13.73,0 -23.969,-2.765 -30.707,-8.308 -6.992,-5.535 -10.477,-13.602 -10.477,-24.203 z"
         style="fill:#fcfcfc;fill-opacity:1;fill-rule:nonzero;stroke:none"
         id="path26" /><path
         d="m 788.965,139.637 c -7.945,0.48 -16.559,0.359 -25.824,-0.36 -9.278,-0.726 -13.914,-6.621 -13.914,-17.703 V 15.363 h 13.007 c 3.129,0 5.899,1.207 8.309,3.614 2.402,2.41 3.609,5.3 3.609,8.668 v 16.257 h 14.813 v 5.059 c 0,3.613 -1.207,6.562 -3.61,8.851 -2.41,2.29 -5.3,3.43 -8.671,3.43 h -2.532 v 53.469 c 0,4.098 2.407,6.141 7.227,6.141 h 7.586 z"
         style="fill:#fcfcfc;fill-opacity:1;fill-rule:nonzero;stroke:none"
         id="path28" /><path
         d="M 495.207,107.41 C 484.02,101.875 479.449,88.359 485,77.129 c 5.523,-11.168 19.059,-15.781 30.246,-10.254 11.195,5.539 15.758,19.098 10.234,30.266 -5.55,11.234 -19.078,15.804 -30.273,10.269 m 50.531,-0.222 C 556.805,84.805 547.645,57.68 525.266,46.613 502.895,35.555 475.77,44.742 464.703,67.125 c -3.66,7.402 -4.578,15.305 -4.578,22.937 l -0.02,-0.007 0.012,88.359 70.199,-53.648 -0.046,-0.02 c 6.437,-4.25 11.808,-10.156 15.468,-17.558"
         style="fill:#bf192b;fill-opacity:1;fill-rule:nonzero;stroke:none"
         id="path30" /></g></g></svg>