<?xml version="1.0" encoding="UTF-8" standalone="no"?>
<svg
   xmlns:dc="http://purl.org/dc/elements/1.1/"
   xmlns:cc="http://creativecommons.org/ns#"
   xmlns:rdf="http://www.w3.org/1999/02/22-rdf-syntax-ns#"
   xmlns:svg="http://www.w3.org/2000/svg"
   xmlns="http://www.w3.org/2000/svg"
   version="1.1"
   id="svg2"
   xml:space="preserve"
   width="1003.7361"
   height="227.88533"
   viewBox="0 0 1003.736 227.88533"><metadata
     id="metadata8"><rdf:RDF><cc:Work
         rdf:about=""><dc:format>image/svg+xml</dc:format><dc:type
           rdf:resource="http://purl.org/dc/dcmitype/StillImage" /><dc:title></dc:title></cc:Work></rdf:RDF></metadata><defs
     id="defs6"><rect
       x="566.94897"
       y="28.128479"
       width="304.74417"
       height="187.12119"
       id="rect31" /></defs><g
     id="g10"
     transform="matrix(1.3333333,0,0,1.3333333,-15,-15)"><path
       d="m 72.805,91.227 c -3.379,1.687 -8.075,3.253 -14.09,4.699 l -8.309,1.804 c -4.336,1.208 -7.468,2.774 -9.394,4.696 -1.688,2.656 -2.528,5.301 -2.528,7.949 0,3.613 1.082,6.5 3.25,8.672 2.168,1.93 5.293,2.887 9.391,2.887 6.742,0 12.043,-1.922 15.898,-5.782 3.848,-3.847 5.782,-9.148 5.782,-15.894 z m 5.777,44.437 c -5.055,2.652 -10.422,4.27 -16.074,4.879 -5.664,0.594 -10.656,0.898 -14.992,0.898 -8.672,0 -16.258,-2.347 -22.762,-7.043 C 18.25,129.703 15,121.934 15,111.098 15,100.98 17.949,93.754 23.852,89.422 29.75,85.086 37.273,82.195 46.43,80.75 c 1.203,0 2.648,-0.18 4.336,-0.543 1.683,-0.359 3.613,-0.656 5.781,-0.902 10.594,-1.446 15.894,-4.571 15.894,-9.391 0,-3.613 -1.867,-5.961 -5.601,-7.043 -3.735,-1.086 -7.168,-1.629 -10.293,-1.629 -3.379,0 -6.387,0.485 -9.031,1.446 -2.653,0.964 -4.578,2.773 -5.782,5.417 H 17.531 c 0.957,-7.46 4.332,-13.601 10.114,-18.421 6.503,-5.539 15.769,-8.309 27.816,-8.309 13.488,0 23.601,2.289 30.348,6.863 6.98,4.821 10.476,11.559 10.476,20.231 v 32.875 c 0,9.633 -1.75,17.16 -5.238,22.578 -3.492,5.418 -7.649,9.336 -12.465,11.742"
       style="fill:#fcfcfc;fill-opacity:1;fill-rule:nonzero;stroke:none"
       id="path14" /><path
       d="m 126.922,90.867 c 0,9.637 1.805,16.977 5.418,22.035 3.609,5.059 8.789,7.586 15.531,7.586 6.504,0 11.563,-2.527 15.176,-7.586 3.367,-5.058 5.058,-12.398 5.058,-22.035 0,-8.672 -1.808,-15.535 -5.421,-20.594 -3.856,-4.812 -9.032,-7.222 -15.536,-7.222 -6.261,0 -11.199,2.527 -14.808,7.586 -3.613,4.82 -5.418,11.558 -5.418,20.23 M 168.105,15 h 12.282 c 3.371,0 6.258,1.266 8.668,3.793 2.406,2.531 3.613,5.363 3.613,8.492 V 97.73 c 0,17.106 -4.938,28.665 -14.809,34.68 -9.879,6.024 -20.593,9.031 -32.156,9.031 -6.262,0 -12.402,-1.023 -18.422,-3.07 -6.023,-2.043 -10.84,-5.355 -14.453,-9.933 -6.984,-8.907 -10.473,-21.075 -10.473,-36.489 0,-15.172 3.489,-27.332 10.473,-36.484 7.227,-9.395 16.496,-14.09 27.82,-14.09 6.016,0 11.317,1.207 15.895,3.609 4.816,2.891 8.672,6.629 11.562,11.204 z"
       style="fill:#fcfcfc;fill-opacity:1;fill-rule:nonzero;stroke:none"
       id="path16" /><path
       d="M 260.875,139.637 H 235.227 L 201.629,43.539 h 26.734 l 19.145,67.559 16.98,-58.887 c 1.922,-5.781 5.782,-8.672 11.559,-8.672 h 18.785 z"
       style="fill:#fcfcfc;fill-opacity:1;fill-rule:nonzero;stroke:none"
       id="path18" /><path
       d="m 327.273,81.836 h 36.852 c -0.488,-6.504 -2.168,-11.316 -5.059,-14.453 -3.132,-3.367 -7.586,-5.055 -13.367,-5.055 -5.301,0 -9.637,1.688 -13.004,5.055 -3.375,3.379 -5.183,8.191 -5.422,14.453 m 43.352,28.176 h 18.063 c -2.653,10.117 -7.708,17.828 -15.172,23.121 -7.469,5.543 -16.86,8.308 -28.18,8.308 -13.727,0 -24.445,-4.453 -32.152,-13.367 -7.711,-8.668 -11.559,-21.07 -11.559,-37.207 0,-15.41 3.73,-27.457 11.199,-36.125 7.707,-8.91 18.426,-13.367 32.153,-13.367 14.449,0 25.648,4.332 33.597,13.004 7.707,8.914 11.559,21.316 11.559,37.211 v 3.972 c 0,1.208 -0.121,2.051 -0.36,2.528 h -62.5 c 0.239,7.469 2.047,13.008 5.422,16.621 3.125,3.855 7.821,5.777 14.09,5.777 4.09,0 7.586,-0.84 10.473,-2.527 0.722,-0.234 1.383,-0.66 1.988,-1.266 0.598,-0.597 1.266,-1.261 1.988,-1.984 0.235,-0.723 1.141,-1.684 2.711,-2.891 1.563,-1.203 3.793,-1.808 6.68,-1.808"
       style="fill:#fcfcfc;fill-opacity:1;fill-rule:nonzero;stroke:none"
       id="path20" /><path
       d="M 398.734,139.637 V 93.031 c 0,-9.39 1.383,-17.277 4.153,-23.66 2.769,-6.379 6.558,-11.496 11.379,-15.355 4.574,-3.61 9.937,-6.258 16.078,-7.946 6.14,-1.683 12.465,-2.531 18.965,-2.531 h 3.613 v 25.652 h -8.309 c -6.988,0 -12.164,1.688 -15.535,5.055 -3.375,3.379 -5.055,8.672 -5.055,15.899 v 49.492 z"
       style="fill:#fcfcfc;fill-opacity:1;fill-rule:nonzero;stroke:none"
       id="path22" /><path
       d="M 495.207,107.41 C 484.02,101.875 479.449,88.359 485,77.129 c 5.523,-11.168 19.059,-15.781 30.246,-10.254 11.195,5.539 15.758,19.098 10.234,30.266 -5.55,11.234 -19.078,15.804 -30.273,10.269 m 50.531,-0.222 C 556.805,84.805 547.645,57.68 525.266,46.613 502.895,35.555 475.77,44.742 464.703,67.125 c -3.66,7.402 -4.578,15.305 -4.578,22.937 l -0.02,-0.007 0.012,88.359 70.199,-53.648 -0.046,-0.02 c 6.437,-4.25 11.808,-10.156 15.468,-17.558"
       style="fill:#bf192b;fill-opacity:1;fill-rule:nonzero;stroke:none"
       id="path30" /><g
       aria-label="dev"
       transform="translate(-13.64714,-31.608221)"
       id="text29"
       style="font-style:normal;font-weight:normal;font-size:144px;line-height:1.25;font-family:sans-serif;white-space:pre;shape-inside:url(#rect31);fill:#ffffff;fill-opacity:1;stroke:none"><path
         d="m 584.94922,163.12891 v 9 h 27 v -9 z m 0,0 q 0,0 0,-54 h -9 q 0,0 0,54 z m 36,0 v 9 h 9 V 73.128906 h -9 q 0,0 0,36.000004 h -9 v 9 h 9 q 0,0 0,36 h -9 v 9 z m -36,-54 h 27 v -9 h -27 z"
         style="font-style:normal;font-variant:normal;font-weight:normal;font-stretch:normal;font-size:144px;font-family:Unifont;-inkscape-font-specification:Unifont;fill:#ffffff"
         id="path35" /><path
         d="m 701.94922,163.12891 v -9 h -9 v 9 h -36 v 9 h 36 v -9 z m -45,0 v -27 h 45 v -27 h -9 q 0,0 0,18 h -36 q 0,0 0,-18 h -9 q 0,0 0,54 z m 0,-54 h 36 v -9 h -36 z"
         style="font-style:normal;font-variant:normal;font-weight:normal;font-stretch:normal;font-size:144px;font-family:Unifont;-inkscape-font-specification:Unifont;fill:#ffffff"
         id="path37" /><path
         d="m 737.94922,154.12891 q 0,0 0,18 h 18 q 0,0 0,-18 z m 0,0 v -27 h -9 v 27 z m 18,0 h 9 v -27 h -9 z m -27,-27 v -27 h -9 v 27 z m 36,0 h 9 v -27 h -9 z"
         style="font-style:normal;font-variant:normal;font-weight:normal;font-stretch:normal;font-size:144px;font-family:Unifont;-inkscape-font-specification:Unifont;fill:#ffffff"
         id="path39" /></g></g></svg>
