<?xml version="1.0" encoding="UTF-8" standalone="no"?>
<svg
   xmlns:dc="http://purl.org/dc/elements/1.1/"
   xmlns:cc="http://creativecommons.org/ns#"
   xmlns:rdf="http://www.w3.org/1999/02/22-rdf-syntax-ns#"
   xmlns:svg="http://www.w3.org/2000/svg"
   xmlns="http://www.w3.org/2000/svg"
   viewBox="0 0 140.43889 201.9812"
   height="201.9812"
   width="140.43889"
   xml:space="preserve"
   id="svg2"
   version="1.1"><metadata
     id="metadata8"><rdf:RDF><cc:Work
         rdf:about=""><dc:format>image/svg+xml</dc:format><dc:type
           rdf:resource="http://purl.org/dc/dcmitype/StillImage" /><dc:title></dc:title></cc:Work></rdf:RDF></metadata><defs
     id="defs6" /><g
     transform="matrix(1.3333333,0,0,1.3333333,-603.47332,-45.904122)"
     id="g10"><g
       id="g12"><path
         id="path30"
         style="fill:#bf192b;fill-opacity:1;fill-rule:nonzero;stroke:none"
         d="M 495.207,107.41 C 484.02,101.875 479.449,88.359 485,77.129 c 5.523,-11.168 19.059,-15.781 30.246,-10.254 11.195,5.539 15.758,19.098 10.234,30.266 -5.55,11.234 -19.078,15.804 -30.273,10.269 m 50.531,-0.222 C 556.805,84.805 547.645,57.68 525.266,46.613 502.895,35.555 475.77,44.742 464.703,67.125 c -3.66,7.402 -4.578,15.305 -4.578,22.937 l -0.02,-0.007 0.012,88.359 70.199,-53.648 -0.046,-0.02 c 6.437,-4.25 11.808,-10.156 15.468,-17.558" /></g></g></svg>