<svg xmlns="http://www.w3.org/2000/svg" viewBox="0 0 806.94 133.45"><defs><style>.cls-1{fill:gold;}.cls-2{isolation:isolate;}.cls-3{fill:#231f20;}</style></defs><g id="Layer_2" data-name="Layer 2"><g id="Layer_1-2" data-name="Layer 1"><g id="Layer_2-2" data-name="Layer 2"><g id="Layer_2-2-2" data-name="Layer 2-2"><g id="Layer_2-3" data-name="Layer 2-3"><g id="Layer_1-2-2" data-name="Layer 1-2"><path class="cls-1" d="M445.8,81.63l29.88,49.58c-1.08,1.33-2.15.83-3.06.83-9.12,0-18.24,0-27.36.07a5,5,0,0,1-5.06-2.84c-8.17-14.53-16.6-29-24.92-43.53-1.51-2.63-5.67-4.07-8.21-2.83-1.66.81-1.11,2.37-1.12,3.64q-.06,20.61,0,41.23v4.27H395c-5.75,0-11.5-.09-17.24,0-2.29.06-3.26-.7-3.08-3,.06-.62,0-1.25,0-1.88V7c0-5.08,0-5.09,5.22-5.09,16.24,0,32.48-.12,48.72,0,11,.1,21.59,1.87,31,8.3,12.23,8.39,16.83,20.52,16.24,34.62-.75,18-10.18,29.72-27.51,35A3.53,3.53,0,0,0,445.8,81.63ZM406,44.63c0,4.63.06,9.25,0,13.88,0,2.2.79,3.17,3.07,3.15,6.37-.08,12.75.19,19.12-.09,10.31-.45,15.85-6.06,16.16-15.91.33-10.17-4.72-16.27-15.1-17.21-6.82-.62-13.73-.25-20.6-.4-2.3-.06-2.66,1.23-2.64,3.09,0,4.53-.05,9.07-.05,13.52Z"/><path class="cls-1" d="M721.08,132.1H690.27c-1.93,0-2.49-1.07-3-2.64-2.1-6.27-4.41-12.47-6.42-18.76-.68-2.1-1.82-2.61-3.82-2.6q-21.57.09-43.11,0c-2.18,0-3.33.58-4,2.83-1.94,6.18-4.21,12.25-6.31,18.38-.5,1.46-.87,2.81-2.91,2.8-10-.06-20,0-30.38,0,1.17-5.43,3.4-10.16,5.18-15Q615.12,63.55,635,10.05c3.21-8.58.57-7.13,10-7.22,8.5-.07,17,0,25.49,0,2.37,0,3.49.79,4.33,3.07Q697.34,67.18,720,128.39C720.31,129.36,720.58,130.44,721.08,132.1ZM671.89,84.21c-5.33-15.77-10.53-31.12-15.72-46.47l-1.28-.09-16,46.56Z"/><path class="cls-1" d="M94.57,37.74c-2.12,1.15-4.15.62-6.1.64-7.74.07-15.5-.08-23.24.09-2.79.06-4.17-.66-5-3.53-2.53-8.38-9.22-12-17.74-10.32-4.2.86-7.15,3.12-8.46,7.12-1.48,4.55-.82,8.89,2.63,12.54,4.3,4.55,10.15,6.23,15.71,8.39,8.09,3.15,16.4,5.86,24.29,9.64,23.9,11.43,25.31,40,12.78,55.62a39.07,39.07,0,0,1-23.73,14C51.46,134.66,37.31,134,24,127.65,10.37,121.15,2.16,110.53.7,95.19a5,5,0,0,1,0-1.09c0-.12.1-.22.23-.48,1.91-.88,4.1-.4,6.1-.42,7.75-.07,15.5,0,23.25-.07,2.25,0,3.14.62,3.77,2.92,2.58,9.55,10.13,14.32,19.47,12.7,4.53-.79,8-3.06,9.46-7.51,1.6-4.83.91-9.38-2.74-13.21-4.21-4.44-9.83-6.24-15.3-8.29-8.41-3.16-17-5.78-25-9.89C7.6,63.49.55,53.74,0,39.57-.46,24.36,5.8,13.09,19.24,5.83,35.59-3,67-2.36,82,11.54A39,39,0,0,1,94.57,37.74Z"/><path class="cls-1" d="M146.08,132.11H117.25c-1.65,0-2.25-.72-2.22-2.24V7c0-5,0-5.06,5.2-5.06,15.49,0,31-.1,46.46,0,9.05.08,18,1.32,26.12,5.55,11.48,5.94,18.05,15.64,19.92,28.27,2.12,14.34-.14,27.75-11.11,38.32-7.17,6.9-16.07,10.23-25.86,11.54-8.47,1.13-17,.6-25.44.57-3.28,0-4.32,1-4.29,4.22C146.17,104.12,146.08,117.86,146.08,132.11Zm0-88.25V58.09c0,1.38-.06,3,1.93,3,7.48-.17,15,1,22.4-.7,7.1-1.6,11.05-7,11.27-14.41.29-9.62-2.82-15.1-10.18-17.52-7.66-2.53-15.6-1-23.41-1.35-2-.09-2,1.54-2,2.91V43.86Z"/><path class="cls-1" d="M518.9,132.1V32.74c0-7.32.27-6.08-6.31-6.12-9.48-.06-19,0-29,0V9.21c0-7.3,0-7.3,7.32-7.3H580.5c5,0,5,0,5,4.94,0,5.37-.12,10.75,0,16.12.09,2.77-.84,3.71-3.63,3.67-9.12-.14-18.25.09-27.37-.13-3.42-.08-4.43.87-4.42,4.38.14,32.24,0,64.48.16,96.71,0,3.6-1,4.69-4.59,4.58C536.92,131.92,528.18,132.1,518.9,132.1Z"/><path class="cls-1" d="M806.94,108.32v23.24c-1,.86-2.07.53-3,.53q-33.18,0-66.36.09c-3,0-3.8-.88-3.79-3.79q.12-61.32,0-122.59c0-2.91.86-4,3.83-3.93q11.79.22,23.62,0c2.86-.06,3.81.69,3.8,3.78-.14,32.49-.09,65-.08,97.47,0,5.18,0,5.19,5.13,5.2Z"/></g></g></g><g id="Layer_3" data-name="Layer 3"><g id="Layer_2-4" data-name="Layer 2-4"><g id="Layer_1-2-2-2" data-name="Layer 1-2-2"><g id="Layer_2-2-2-2" data-name="Layer 2-2-2"><g id="Layer_1-2-2-2-2" data-name="Layer 1-2-2-2"><path class="cls-1" d="M236.36,34.44a55.85,55.85,0,0,1,7-9,43.32,43.32,0,0,1,15.4-10.8A40.67,40.67,0,0,1,275.71,12a38,38,0,0,1,19.81,6.24c9.65,6.47,16.05,15.24,18.11,26.83a40.14,40.14,0,0,1-2.87,24.21,3.21,3.21,0,0,1-.4.67,43.56,43.56,0,0,0-8.58-30.8,42.22,42.22,0,0,0-18.63-14.25A43.68,43.68,0,0,0,236.36,34.44Z"/><path class="cls-1" d="M282,78.52a43.61,43.61,0,0,0,69.45-43.78c.34.77.7,1.53,1,2.31,2.16,5.32,3.94,10.77,4.24,16.54.76,14.44-4.4,26.31-15.86,35.27A38.22,38.22,0,0,1,315,97.25c-14.1-.56-25-6.9-32.94-18.44A1.36,1.36,0,0,1,282,78.52Z"/><path class="cls-1" d="M287.71,51c-18.44,9.61-27,24.76-25.32,45.68q5,27.66,31.68,36.16a10.48,10.48,0,0,1-1.94-.12l-2.16-.21a52.79,52.79,0,0,1-14.94-3.8,39.92,39.92,0,0,1-16.4-13A39.06,39.06,0,0,1,250.55,91c.23-13,5.54-23.47,15.65-31.55A38.64,38.64,0,0,1,287.71,51Z"/><path class="cls-1" d="M316,3.74A55.12,55.12,0,0,1,322.46,7,46.31,46.31,0,0,1,336,18.22a39.59,39.59,0,0,1,8.83,24.83c0,14-5.76,25.19-17,33.49A38.77,38.77,0,0,1,303,84.14a37.61,37.61,0,0,1-9.49-1.4c19.36-2.51,32.66-12.66,38.78-31.67C337,31.79,331.2,16.17,316,3.74Z"/><path class="cls-1" d="M300.26,50.15a43.93,43.93,0,0,0-30.53,2.69,40.61,40.61,0,0,0-17.9,15.69c-9.8,16.12-9.2,32.22.47,48.23l-.12-.15a53.54,53.54,0,0,1-12.34-16.7,39,39,0,0,1-3.32-20.58,40.63,40.63,0,0,1,62.93-29.76A7.3,7.3,0,0,1,300.26,50.15Z"/><path class="cls-1" d="M228.9,77.79a58.79,58.79,0,0,1-.49-6.63,51,51,0,0,1,.6-9.87,38.06,38.06,0,0,1,4.48-13c7.8-13.36,19.41-20.76,34.92-21.1,13.88-.31,25.12,5.43,33.51,16.56a39.22,39.22,0,0,1,6.34,13l.15.48a2.5,2.5,0,0,1-.05.29,43,43,0,0,0-23.14-17.19,41.42,41.42,0,0,0-28.75,1C240.17,48,231.24,60.45,228.9,77.79Z"/><path class="cls-1" d="M335.86,116.2c-.66.46-1.39,1-2.15,1.53-5.89,4-12.13,7.25-19.22,8.34-15.72,2.41-28.84-2.46-38.92-14.81A38.7,38.7,0,0,1,266.81,84a40.19,40.19,0,0,1,11.4-26.2c.14-.15.3-.29.43-.42-7.39,18.14-5.16,34.67,8.19,49.36C301.18,120.4,317.62,123.08,335.86,116.2Z"/><path class="cls-1" d="M359.87,77.3a36.54,36.54,0,0,1-1,4,48.65,48.65,0,0,1-6.47,14.17c-7.9,11.37-18.79,17.61-32.71,18-13.44.37-24.46-5-32.87-15.37A39.15,39.15,0,0,1,278,72.32c0-1.1.07-2.2.17-3.32,3.24,12.07,10.1,21.47,21,27.55a42.1,42.1,0,0,0,34.46,3.52C345.67,96.26,354.22,88.44,359.87,77.3Z"/><path class="cls-1" d="M305.39,79.49c13.8-13,16.31-33.94,9.84-48.13-8.52-18.69-23.45-27-43.45-26.75A48.13,48.13,0,0,1,277,3.28a51.94,51.94,0,0,1,16.12-1,40.64,40.64,0,0,1,20,72.65A38.09,38.09,0,0,1,305.39,79.49Z"/></g></g></g></g><g class="cls-2"><path class="cls-3" d="M794.12,4.84a5.85,5.85,0,0,1,2.31,2.29,6.75,6.75,0,0,1,.83,3.36,6.79,6.79,0,0,1-.83,3.35,5.83,5.83,0,0,1-2.31,2.31,7.36,7.36,0,0,1-6.75,0,5.92,5.92,0,0,1-2.32-2.31,6.69,6.69,0,0,1-.84-3.35,6.65,6.65,0,0,1,.84-3.36,5.94,5.94,0,0,1,2.32-2.29,7.28,7.28,0,0,1,6.75,0ZM794.2,14a4.77,4.77,0,0,0,1.29-3.48A4.77,4.77,0,0,0,794.2,7a5.17,5.17,0,0,0-6.9,0A4.77,4.77,0,0,0,786,10.49,4.77,4.77,0,0,0,787.3,14a5.17,5.17,0,0,0,6.9,0Zm-.86-3.57a1.93,1.93,0,0,1-.85.72L794,13.58h-2.46l-1.2-2.22h-.18v2.22H788V7.22h3.33a2.41,2.41,0,0,1,1.68.57,1.93,1.93,0,0,1,.63,1.5A2,2,0,0,1,793.34,10.4Zm-3.19-.51H791q.48,0,.48-.45T791,9h-.84Z"/></g></g></g></g></g></svg>